<?xml version="1.0" encoding="UTF-8" standalone="no"?><svg xmlns="http://www.w3.org/2000/svg" xmlns:xlink="http://www.w3.org/1999/xlink" fill="#000000" height="440" preserveAspectRatio="xMidYMid meet" version="1" viewBox="0.0 0.0 464.1 440.0" width="464.1" zoomAndPan="magnify"><g id="change1_1"><path d="M243.538,38.185v-2c50.363,0,98.445,21.612,131.917,59.293l-1.496,1.328 C340.867,59.552,293.331,38.185,243.538,38.185z M103.055,353.996l3.841-3.841l-1.414-1.414l-3.714,3.714 c-8.189-9.898-15.304-20.673-21.109-32.08c-12.521-24.604-18.87-51.178-18.87-78.981h-2c0,28.122,6.422,55.001,19.087,79.889 c5.9,11.594,13.137,22.543,21.471,32.594l-0.522,0.522l1.414,1.414l0.399-0.399c8.414,9.919,17.904,18.936,28.27,26.772l1.206-1.596 C120.821,372.809,111.4,363.852,103.055,353.996z M420.125,228.51c0,96.156-78.229,174.385-174.386,174.385 c-4.294,0-8.562-0.162-12.801-0.466V400h-2v2.279c-32.812-2.73-63.762-14.539-90.26-34.571l-1.206,1.596 c26.849,20.296,58.215,32.248,91.466,34.983V408h2v-3.566c4.24,0.301,8.507,0.461,12.801,0.461 c97.26,0,176.386-79.126,176.386-176.385H420.125z M404.047,225.066c0-43.224-15.793-84.808-44.469-117.092l-1.496,1.328 c28.352,31.917,43.965,73.03,43.965,115.764H404.047z M380.406,223.698c0-74.211-60.375-134.586-134.586-134.586v2 c32.669,0,62.611,11.884,85.745,31.547l-5.466,5.466l1.414,1.414l5.572-5.571c27.76,24.32,45.321,60.012,45.321,99.731 c0,13.446-2.006,26.712-5.961,39.428l1.91,0.594C378.37,250.811,380.406,237.346,380.406,223.698z M169.167,91.007 c18.398-9.141,38.22-13.776,58.916-13.776v-2c-21.007,0-41.128,4.705-59.805,13.985L169.167,91.007z M126.606,299.041 c-14.813-21.926-22.643-47.56-22.643-74.13c0-25.157,7.075-49.636,20.461-70.792c2.588-4.091,5.397-8.018,8.394-11.78l5.587,4.659 l1.281-1.536l-5.605-4.674c11.882-14.466,26.698-26.313,43.551-34.687l-0.89-1.791c-22.109,10.985-40.786,27.839-54.01,48.739 c-13.588,21.477-20.771,46.326-20.771,71.862c0,26.971,7.948,52.991,22.985,75.249L126.606,299.041z M308.462,329.833 c-24.165,21.187-55.192,32.854-87.367,32.854c-44.114,0-85.214-21.854-109.943-58.457l-1.657,1.119 c5.289,7.829,11.324,14.984,17.962,21.416l-5.005,5.004l1.414,1.414l5.037-5.036c24.707,23.24,57.53,36.54,92.192,36.54 c32.66,0,64.155-11.844,88.685-33.351L308.462,329.833z M353.996,285.526c-7.241,23.284-20.816,44.137-39.258,60.305l1.318,1.504 c10.169-8.916,18.867-19.244,25.882-30.601l5.36,4.47l1.281-1.535l-5.586-4.658c5.408-9.056,9.756-18.744,12.912-28.891 L353.996,285.526z M149.654,210.298l-1.941-0.479c-1.727,7.005-2.603,14.25-2.603,21.535c0,48.159,38.159,87.567,85.829,89.593V328 h2v-6.988c0.616,0.013,1.233,0.024,1.853,0.024c22.771,0,44.479-8.545,61.128-24.061l-1.363-1.463 c-16.277,15.169-37.502,23.523-59.765,23.523c-48.348,0-87.681-39.333-87.681-87.681C147.11,224.23,147.966,217.146,149.654,210.298 z M145.14,186.554l1.941,0.479c2.165-8.782,5.608-16.965,10.089-24.386l5.811,4.846l1.281-1.536l-6.024-5.024 c15.735-24.744,43.283-40.524,73.98-40.524c27.591,0,53.023,12.601,69.773,34.572l1.59-1.213 c-16.985-22.279-42.699-35.131-70.642-35.349V112h-2v6.435C190.103,119.007,154.927,146.846,145.14,186.554z M265.035,223.698 c0,7.69-2.666,14.766-7.113,20.366l-1.501-1.252l-1.281,1.535l1.496,1.247c-5.862,6.53-14.299,10.697-23.696,10.901V256h-2v8h2 v-5.504c10.013-0.205,19.001-4.652,25.231-11.621l3.113,2.596l1.281-1.535l-3.108-2.592c4.737-5.948,7.577-13.47,7.577-21.647 H265.035z M197.402,223.698h2c0-7.562,2.578-14.529,6.892-20.085l5.839,4.869l1.281-1.536l-5.846-4.875 c6.019-6.852,14.835-11.189,24.65-11.189v-2C213.02,188.881,197.402,204.5,197.402,223.698z M230.939,392h2v-8h-2V392z M232.939,32 h-2v8h2V32z M232.939,16h-2v8h2V16z M232.939,0h-2v8h2V0z M232.939,288h-2v8h2V288z M232.939,192h-2v8h2V192z M230.939,216h2v-8h-2 V216z M232.939,272h-2v8h2V272z M230.939,312h2v-8h-2V312z M232.939,48h-2v8h2V48z M232.939,336h-2v8h2V336z M230.939,136h2v-8h-2 V136z M230.939,360h2v-8h-2V360z M230.939,184h2v-8h-2V184z M230.939,152h2v-8h-2V152z M230.939,168h2v-8h-2V168z M232.939,240h-2v8 h2V240z M230.939,424h2v-8h-2V424z M230.939,440h2v-8h-2V440z M232.939,64h-2v8h2V64z M232.939,80h-2v8h2V80z M232.939,368h-2v8h2 V368z M232.939,96h-2v8h2V96z M244.724,225.321l-7.834-1.62l-0.404,1.959l7.834,1.62L244.724,225.321z M41.037,183.188l-7.834-1.621 l-0.405,1.959l7.834,1.62L41.037,183.188z M87.636,194.87l0.405-1.959l-7.834-1.621l-0.405,1.959L87.636,194.87z M370.071,251.249 l-7.834-1.62l-0.404,1.959l7.834,1.62L370.071,251.249z M158.549,207.496l-0.405,1.959l7.834,1.621l0.405-1.959L158.549,207.496z M173.812,212.695l7.834,1.62l0.405-1.958l-7.834-1.621L173.812,212.695z M142.476,206.213l7.834,1.621l0.405-1.958l-7.834-1.621 L142.476,206.213z M291.325,237.002l0.404-1.959l-7.834-1.62l-0.404,1.959L291.325,237.002z M220.817,222.418l7.834,1.621 l0.405-1.959l-7.834-1.62L220.817,222.418z M401.003,259.69l0.404-1.959l-7.835-1.62l-0.404,1.959L401.003,259.69z M189.48,215.937 l7.834,1.621l0.405-1.959l-7.834-1.621L189.48,215.937z M205.148,219.177l7.834,1.62l0.405-1.958l-7.834-1.621L205.148,219.177z M417.076,260.972l-7.833-1.621l-0.405,1.959l7.834,1.621L417.076,260.972z M259.989,230.521l0.404-1.959l-7.835-1.62l-0.404,1.959 L259.989,230.521z M48.465,186.768l7.834,1.621l0.405-1.959l-7.834-1.62L48.465,186.768z M71.968,191.629l0.405-1.959l-7.834-1.621 l-0.405,1.959L71.968,191.629z M456.247,269.075l-0.404,1.959l7.834,1.62l0.404-1.959L456.247,269.075z M440.173,267.792l7.835,1.62 l0.404-1.959l-7.835-1.62L440.173,267.792z M354.403,248.008l-7.835-1.621l-0.404,1.959l7.835,1.621L354.403,248.008z M17.129,180.286l7.834,1.62l0.405-1.959l-7.834-1.62L17.129,180.286z M338.735,244.767l-7.834-1.621l-0.406,1.959l7.834,1.621 L338.735,244.767z M276.061,231.803l-7.833-1.621l-0.405,1.959l7.834,1.621L276.061,231.803z M385.739,254.49l-7.834-1.62 l-0.404,1.959l7.834,1.62L385.739,254.49z M322.662,243.485l0.404-1.959l-3.501-0.724c1.535-6.592,2.334-13.379,2.334-20.234 c0-19.818-6.334-38.602-18.318-54.322l-1.59,1.213c11.716,15.368,17.908,33.733,17.908,53.109c0,6.718-0.785,13.37-2.293,19.829 l-2.374-0.491l-0.404,1.959l2.3,0.476c-3.368,13.077-9.725,25.297-18.604,35.583l-5.239-4.369l-1.281,1.535l5.194,4.331 c-1.658,1.834-3.394,3.607-5.215,5.303l1.363,1.463c12.633-11.774,21.51-26.946,25.741-43.442L322.662,243.485z M127.212,201.014 l-0.405,1.959l7.834,1.62l0.405-1.959L127.212,201.014z M424.505,264.551l7.834,1.62l0.404-1.959l-7.834-1.62L424.505,264.551z M307.398,238.285l-7.835-1.62l-0.404,1.959l7.835,1.62L307.398,238.285z M103.71,196.152l-7.834-1.62l-0.405,1.959l7.834,1.62 L103.71,196.152z M118.973,201.352l0.405-1.958l-7.834-1.621l-0.405,1.958L118.973,201.352z M11.914,186.333l3.232-15.625L0,175.721 L11.914,186.333z M169.121,287.93l5.657-5.657l-1.414-1.414l-5.657,5.657L169.121,287.93z M180.435,276.616l5.657-5.656 l-1.414-1.414l-5.657,5.656L180.435,276.616z M203.062,253.989l4.338-4.338c5.043,2.845,10.856,4.476,17.047,4.476v-2 c-5.917,0-11.469-1.582-16.268-4.334l-0.875-0.875l-0.221,0.221c-9.271-5.805-15.453-16.105-15.453-27.828h-2 c0,12.272,6.387,23.072,16.006,29.274l-3.99,3.99L203.062,253.989z M191.749,265.302l5.657-5.656l-1.414-1.414l-5.657,5.656 L191.749,265.302z M275.188,179.036l-5.657,5.657l1.414,1.414l5.657-5.657L275.188,179.036z M263.874,190.349l-2.903,2.903 c-6.146-5.443-14.218-8.758-23.054-8.758v2c8.284,0,15.856,3.092,21.638,8.175l-1.337,1.337l1.414,1.414l1.389-1.389 c5.994,5.949,9.713,14.187,9.713,23.279h2c0-9.644-3.943-18.382-10.299-24.693l2.854-2.854L263.874,190.349z M246.904,207.32 l1.414,1.414l5.656-5.657l-1.414-1.414L246.904,207.32z M237.003,220.047l5.657-5.657l-1.414-1.414l-5.657,5.657L237.003,220.047z M77.334,376.888l1.414,1.414l5.52-5.52l-1.414-1.414L77.334,376.888z M303.472,150.751l1.414,1.414l5.656-5.657l-1.414-1.414 L303.472,150.751z M140.837,316.214l-1.414-1.414l-5.657,5.656l1.414,1.414L140.837,316.214z M112.553,344.499l5.657-5.657 l-1.414-1.414l-5.657,5.657L112.553,344.499z M292.159,162.065l1.414,1.414l5.656-5.657l-1.414-1.414L292.159,162.065z M320.443,133.781l-5.657,5.657l1.414,1.414l5.657-5.657L320.443,133.781z M371.354,82.869l1.414,1.414l4.006-4.006l4.934,4.934 l4.128-15.411l-15.411,4.128l4.935,4.935L371.354,82.869z M354.383,99.84l-5.656,5.657l1.414,1.414l5.656-5.657L354.383,99.84z M343.07,111.153l-5.656,5.657l1.414,1.414l5.656-5.657L343.07,111.153z M365.698,88.526l-5.657,5.657l1.414,1.414l5.657-5.657 L365.698,88.526z M88.511,365.711l1.414,1.414l5.657-5.656l-1.414-1.414L88.511,365.711z M280.844,173.379l1.414,1.414l5.657-5.657 l-1.414-1.414L280.844,173.379z M214.376,242.675l5.657-5.657l-1.414-1.414l-5.657,5.657L214.376,242.675z M157.808,299.244 l5.657-5.657l-1.414-1.414l-5.657,5.657L157.808,299.244z M146.494,310.557l5.657-5.657l-1.414-1.414l-5.657,5.657L146.494,310.557z M102.823,114.719l-6.144-5.124l-1.281,1.536l6.144,5.124L102.823,114.719z M127.399,135.214l-6.144-5.124l-1.281,1.536l6.144,5.124 L127.399,135.214z M373.155,340.164l-6.144-5.124l-1.281,1.535l6.144,5.124L373.155,340.164z M108.967,119.843l-1.281,1.536 l6.144,5.124l1.281-1.536L108.967,119.843z M188.838,186.451l-6.144-5.124l-1.281,1.536l6.144,5.124L188.838,186.451z M78.248,94.224l-6.144-5.124l-1.281,1.536l6.144,5.124L78.248,94.224z M65.96,83.977l-6.144-5.124l-1.281,1.536l6.144,5.124 L65.96,83.977z M53.672,73.729l-6.144-5.124l-1.281,1.536l6.144,5.124L53.672,73.729z M360.867,329.916l-6.144-5.124l-1.281,1.535 l6.144,5.124L360.867,329.916z M41.384,63.482l-6.144-5.124l-1.281,1.536l6.144,5.124L41.384,63.482z M378.018,346.822l6.144,5.124 l1.281-1.535l-6.144-5.124L378.018,346.822z M402.593,367.317l6.144,5.124l1.281-1.535l-6.144-5.124L402.593,367.317z M390.305,357.07l6.145,5.123l1.281-1.535l-6.145-5.123L390.305,357.07z M169.125,172.616l6.144,5.124l1.281-1.536l-6.144-5.124 L169.125,172.616z M89.254,106.008l1.281-1.536l-2.067-1.724c31.739-32.922,76.266-53.436,125.498-53.436v-2 c-49.849,0-94.929,20.792-127.038,54.151l-2.537-2.116l-1.281,1.536l2.438,2.033c-29.723,31.585-47.966,74.09-47.966,120.78h2 c0-46.204,18.069-88.263,47.503-119.498L89.254,106.008z M328.867,305.833l6.144,5.123l1.281-1.535l-6.144-5.123L328.867,305.833z M230.564,223.853l0.375,0.313v1.131l-1.006-1.006l-5.657,5.656l1.414,1.414l5.249-5.249V232h2v-6.166l3.769,3.143l1.281-1.535 l-6.144-5.124L230.564,223.853z M218.276,213.606l6.144,5.124l1.281-1.536l-6.144-5.124L218.276,213.606z M250.277,237.689 l-6.144-5.124l-1.281,1.535l6.144,5.124L250.277,237.689z M273.571,259.718l1.281-1.535l-6.144-5.123l-1.281,1.535L273.571,259.718z M311.716,288.926l-6.145-5.124l-1.281,1.535l6.145,5.124L311.716,288.926z M316.579,295.584l6.144,5.124l1.281-1.535l-6.144-5.124 L316.579,295.584z M193.701,193.111l6.144,5.124l1.281-1.536l-6.144-5.124L193.701,193.111z M150.693,157.245l1.281-1.536 l-6.144-5.124l-1.281,1.536L150.693,157.245z M285.859,269.966l1.281-1.535l-6.144-5.124l-1.281,1.535L285.859,269.966z M420.513,379.657l-4.351-3.629l-1.281,1.535l4.351,3.629l-4.469,5.359l15.72,2.722l-5.501-14.976L420.513,379.657z" fill="#ffffff"/></g></svg>